<mxfile host="app.diagrams.net" agent="Mozilla/5.0 (Windows NT 10.0; Win64; x64) AppleWebKit/537.36 (KHTML, like Gecko) Chrome/138.0.0.0 Safari/537.36" version="28.1.0">
  <diagram name="Page-1" id="MInDHuw8pgTgQht_Z8Ow">
    <mxGraphModel dx="1414" dy="989" grid="1" gridSize="10" guides="1" tooltips="1" connect="1" arrows="1" fold="1" page="1" pageScale="1" pageWidth="827" pageHeight="1169" math="0" shadow="0">
      <root>
        <mxCell id="0" />
        <mxCell id="1" parent="0" />
        <mxCell id="8c0XOKPbQHQNpZKEcjh9-1" value="" style="image;points=[];aspect=fixed;html=1;align=center;shadow=0;dashed=0;image=img/lib/allied_telesis/switch/Modular_Switch_SXx908GEN2.svg;" vertex="1" parent="1">
          <mxGeometry x="618" y="190" width="78" height="66.60000000000001" as="geometry" />
        </mxCell>
        <mxCell id="8c0XOKPbQHQNpZKEcjh9-3" value="" style="image;points=[];aspect=fixed;html=1;align=center;shadow=0;dashed=0;image=img/lib/allied_telesis/switch/Modular_Switch_SXx908GEN2.svg;" vertex="1" parent="1">
          <mxGeometry x="618" y="330" width="78" height="66.60000000000001" as="geometry" />
        </mxCell>
        <mxCell id="8c0XOKPbQHQNpZKEcjh9-4" value="" style="image;points=[];aspect=fixed;html=1;align=center;shadow=0;dashed=0;image=img/lib/allied_telesis/switch/Modular_Switch_SXx908GEN2.svg;" vertex="1" parent="1">
          <mxGeometry x="618" y="460" width="78" height="66.60000000000001" as="geometry" />
        </mxCell>
        <mxCell id="8c0XOKPbQHQNpZKEcjh9-7" value="ale_aos_ssh&lt;div&gt;server&lt;/div&gt;" style="rounded=1;whiteSpace=wrap;html=1;" vertex="1" parent="1">
          <mxGeometry x="450" y="196.6" width="94" height="340" as="geometry" />
        </mxCell>
        <mxCell id="8c0XOKPbQHQNpZKEcjh9-11" value="ale-aos_mcp&lt;div&gt;server&lt;/div&gt;" style="rounded=1;whiteSpace=wrap;html=1;" vertex="1" parent="1">
          <mxGeometry x="282" y="199" width="90" height="330" as="geometry" />
        </mxCell>
        <mxCell id="8c0XOKPbQHQNpZKEcjh9-12" value="LLM AI agent" style="rounded=1;whiteSpace=wrap;html=1;" vertex="1" parent="1">
          <mxGeometry x="110" y="196.6" width="90" height="330" as="geometry" />
        </mxCell>
        <mxCell id="8c0XOKPbQHQNpZKEcjh9-10" value="" style="shape=image;verticalLabelPosition=bottom;labelBackgroundColor=default;verticalAlign=top;aspect=fixed;imageAspect=0;editableCssRules=.*;image=data:image/svg+xml,PHN2ZyB4bWxucz0iaHR0cDovL3d3dy53My5vcmcvMjAwMC9zdmciIGZpbGw9Im5vbmUiIGNvbG9yPSIjMDAwMDAwIiBoZWlnaHQ9IjE5Ljk5OTc3ODc0NzU1ODU5NCIgd2lkdGg9IjE4LjUwMDEzNzMyOTEwMTU2MiIgdmlld0JveD0iMi43NDk5Mzk5MTg1MTgwNjY0IDIuMDAwMTIyNTQ3MTQ5NjU4IDE4LjUwMDEzNzMyOTEwMTU2MiAxOS45OTk3Nzg3NDc1NTg1OTQiPiYjeGE7ICAgIDxwYXRoIHN0cm9rZS1saW5lam9pbj0icm91bmQiIHN0cm9rZS1saW5lY2FwPSJyb3VuZCIgc3Ryb2tlLXdpZHRoPSIxLjUiIHN0cm9rZT0iY3VycmVudENvbG9yIiBkPSJNMy40OTk5NCAxMS43NTAxTDExLjY3MTcgMy41Nzg1NUMxMi43NzYyIDIuNDczOTggMTQuNTY3MiAyLjQ3Mzk4IDE1LjY3MTcgMy41Nzg1NUMxNi43NzYyIDQuNjgzMTIgMTYuNzc2MiA2LjQ3Mzk4IDE1LjY3MTcgNy41Nzg1NU0xNS42NzE3IDcuNTc4NTVMOS40OTk5NCAxMy43NTAxTTE1LjY3MTcgNy41Nzg1NUMxNi43NzYyIDYuNDczOTggMTguNTY3MiA2LjQ3Mzk4IDE5LjY3MTcgNy41Nzg1NUMyMC43NzYyIDguNjgzMTIgMjAuNzc2MiAxMC40NzQgMTkuNjcxNyAxMS41Nzg1TDEyLjcwNzIgMTguNTQzQzEyLjMxNjcgMTguOTMzNSAxMi4zMTY3IDE5LjU2NjcgMTIuNzA3MiAxOS45NTcyTDEzLjk5OTkgMjEuMjQ5OSIvPiYjeGE7ICAgIDxwYXRoIHN0cm9rZS1saW5lam9pbj0icm91bmQiIHN0cm9rZS1saW5lY2FwPSJyb3VuZCIgc3Ryb2tlLXdpZHRoPSIxLjUiIHN0cm9rZT0iY3VycmVudENvbG9yIiBkPSJNMTcuNDk5OSA5Ljc0OTIxTDExLjMyODIgMTUuOTIxQzEwLjIyMzcgMTcuMDI1NSA4LjQzMjcyIDE3LjAyNTUgNy4zMjgyMyAxNS45MjFDNi4yMjM3MyAxNC44MTY0IDYuMjIzNzMgMTMuMDI1NSA3LjMyODIzIDExLjkyMUwxMy40OTk5IDUuNzQ5MzkiLz4mI3hhOzwvc3ZnPg==;" vertex="1" parent="1">
          <mxGeometry x="313" y="313" width="19" height="20" as="geometry" />
        </mxCell>
        <mxCell id="8c0XOKPbQHQNpZKEcjh9-14" value="" style="endArrow=classic;html=1;rounded=0;" edge="1" parent="1">
          <mxGeometry width="50" height="50" relative="1" as="geometry">
            <mxPoint x="550" y="230" as="sourcePoint" />
            <mxPoint x="616" y="230" as="targetPoint" />
          </mxGeometry>
        </mxCell>
        <mxCell id="8c0XOKPbQHQNpZKEcjh9-15" value="" style="endArrow=classic;html=1;rounded=0;" edge="1" parent="1">
          <mxGeometry width="50" height="50" relative="1" as="geometry">
            <mxPoint x="550" y="350" as="sourcePoint" />
            <mxPoint x="616" y="350" as="targetPoint" />
            <Array as="points">
              <mxPoint x="580" y="350" />
            </Array>
          </mxGeometry>
        </mxCell>
        <mxCell id="8c0XOKPbQHQNpZKEcjh9-16" value="" style="endArrow=classic;html=1;rounded=0;" edge="1" parent="1">
          <mxGeometry width="50" height="50" relative="1" as="geometry">
            <mxPoint x="552" y="480" as="sourcePoint" />
            <mxPoint x="618" y="480" as="targetPoint" />
          </mxGeometry>
        </mxCell>
        <mxCell id="8c0XOKPbQHQNpZKEcjh9-18" value="" style="endArrow=classic;html=1;rounded=0;" edge="1" parent="1">
          <mxGeometry width="50" height="50" relative="1" as="geometry">
            <mxPoint x="381" y="340" as="sourcePoint" />
            <mxPoint x="447" y="340" as="targetPoint" />
          </mxGeometry>
        </mxCell>
        <mxCell id="8c0XOKPbQHQNpZKEcjh9-19" value="" style="endArrow=classic;html=1;rounded=0;" edge="1" parent="1">
          <mxGeometry width="50" height="50" relative="1" as="geometry">
            <mxPoint x="211" y="340" as="sourcePoint" />
            <mxPoint x="277" y="340" as="targetPoint" />
            <Array as="points">
              <mxPoint x="231" y="340" />
            </Array>
          </mxGeometry>
        </mxCell>
        <mxCell id="8c0XOKPbQHQNpZKEcjh9-20" value="ssh" style="whiteSpace=wrap;html=1;fillColor=default;strokeColor=none;" vertex="1" parent="1">
          <mxGeometry x="558" y="236.6" width="60" height="20" as="geometry" />
        </mxCell>
        <mxCell id="8c0XOKPbQHQNpZKEcjh9-21" value="ssh" style="whiteSpace=wrap;html=1;fillColor=default;strokeColor=none;" vertex="1" parent="1">
          <mxGeometry x="558" y="360" width="60" height="20" as="geometry" />
        </mxCell>
        <mxCell id="8c0XOKPbQHQNpZKEcjh9-22" value="ssh" style="whiteSpace=wrap;html=1;fillColor=default;strokeColor=none;" vertex="1" parent="1">
          <mxGeometry x="560" y="490" width="60" height="20" as="geometry" />
        </mxCell>
        <mxCell id="8c0XOKPbQHQNpZKEcjh9-23" value="http" style="whiteSpace=wrap;html=1;fillColor=default;strokeColor=none;" vertex="1" parent="1">
          <mxGeometry x="384" y="351.6" width="60" height="20" as="geometry" />
        </mxCell>
        <mxCell id="8c0XOKPbQHQNpZKEcjh9-26" value="mcp protocol" style="whiteSpace=wrap;html=1;fillColor=default;strokeColor=none;" vertex="1" parent="1">
          <mxGeometry x="212" y="351.6" width="70" height="20" as="geometry" />
        </mxCell>
      </root>
    </mxGraphModel>
  </diagram>
</mxfile>
